<?xml version="1.0" encoding="UTF-8"?>
<svg version="1.1" xmlns="http://www.w3.org/2000/svg" width="500" height="500">
<path d="M0 0 C4.69900631 3.21417212 9.41393491 6.40485391 14.12722778 9.59802246 C15.10278122 10.25955322 16.07833466 10.92108398 17.08345032 11.60266113 C27.2333931 18.47878806 37.43186969 25.28074492 47.65844727 32.04229736 C49.60648501 33.33127616 51.55304896 34.62248519 53.49810791 35.91595459 C56.21062961 37.71928261 58.92793658 39.51515023 61.64675903 41.30895996 C62.45209076 41.84610626 63.25742249 42.38325256 64.0871582 42.93667603 C64.8305545 43.42465668 65.57395081 43.91263733 66.33987427 44.41540527 C66.98295029 44.84089661 67.62602631 45.26638794 68.28858948 45.70477295 C70.33292267 46.83126448 71.82047994 47.49605271 74.15066528 47.73083496 C76.27014183 46.83202271 76.27014183 46.83202271 78.34573364 45.3092041 C79.16436386 44.7543483 79.98299408 44.19949249 80.82643127 43.62782288 C81.70557693 43.01341843 82.5847226 42.39901398 83.49050903 41.76599121 C84.40844742 41.13986435 85.3263858 40.51373749 86.2721405 39.86863708 C89.2191059 37.85533402 92.15391274 35.82511062 95.08816528 33.79333496 C98.927344 31.15443943 102.77080978 28.52183578 106.61550903 25.89099121 C107.53902161 25.25845932 108.46253418 24.62592743 109.41403198 23.97422791 C130.83136006 9.35225021 130.83136006 9.35225021 138.15066528 9.73083496 C143.35411916 11.31832936 146.75970684 13.46791578 150.15066528 17.73083496 C151.76768076 22.4205062 152.40135907 26.52440506 152.40463257 31.4699707 C152.41027222 32.78735229 152.41591187 34.10473389 152.42172241 35.46203613 C152.41783438 36.90515192 152.41373808 38.34826717 152.40945435 39.79138184 C152.41216718 41.32470872 152.41572975 42.8580343 152.42007446 44.39135742 C152.42917214 48.54474282 152.4256634 52.69802855 152.41931629 56.85141563 C152.4142354 61.21393467 152.41895422 65.57644545 152.42208862 69.93896484 C152.42572528 77.27259848 152.42094029 84.60619182 152.41140747 91.93981934 C152.40055598 100.38470954 152.40402559 108.8295029 152.41506028 117.2743907 C152.42418066 124.5485998 152.42539438 131.82277999 152.42018294 139.09699297 C152.41708503 143.43063978 152.41659262 147.76424134 152.42325592 152.09788513 C152.42909703 156.18225044 152.42491083 160.26649308 152.41346741 164.35084534 C152.41085515 165.83777667 152.41152591 167.32471859 152.41599274 168.81164551 C152.45518059 183.20021551 151.75884508 196.68014004 145.15066528 209.73083496 C144.71882935 210.59321777 144.28699341 211.45560059 143.84207153 212.34411621 C135.66731536 227.23467774 122.47293356 235.72729771 106.72879028 240.78552246 C90.72918061 245.01249358 74.75619547 242.22691487 60.15066528 234.73083496 C52.82036385 230.41082622 45.88085956 225.46204711 38.90066528 220.60583496 C35.23261487 218.07681413 31.55918575 215.55567752 27.88504028 213.03552246 C26.53231773 212.10461037 26.53231773 212.10461037 25.15226746 211.15489197 C18.52465559 206.61327685 11.78242987 202.29069682 4.96504211 198.0410614 C-0.22715314 194.79203177 -5.31282289 191.42086377 -10.34542847 187.93005371 C-11.00980927 187.47052307 -11.67419006 187.01099243 -12.35870361 186.53753662 C-15.02691961 184.68898155 -17.69231411 182.83683181 -20.34664917 180.96838379 C-22.33858065 179.56919066 -24.34083034 178.18601316 -26.34542847 176.80505371 C-26.94326645 176.37818771 -27.54110443 175.95132172 -28.15705872 175.51152039 C-31.20452395 173.28959774 -31.20452395 173.28959774 -34.80718994 172.98973083 C-36.95141283 173.7678796 -38.62344622 174.70280963 -40.52194214 175.96472168 C-41.22755783 176.42966034 -41.93317352 176.894599 -42.66017151 177.37362671 C-43.41740005 177.88080231 -44.1746286 178.38797791 -44.95480347 178.91052246 C-45.75227493 179.43792023 -46.5497464 179.96531799 -47.37138367 180.50869751 C-49.93011468 182.20241347 -52.48360377 183.9038418 -55.03683472 185.60583496 C-56.70509436 186.71314858 -58.37371086 187.81992477 -60.04269409 188.92614746 C-60.86451172 189.47103317 -61.68632935 190.01591888 -62.53305054 190.57731628 C-64.18882667 191.67419373 -65.84515821 192.77023323 -67.50204468 193.86543274 C-71.56201743 196.54910319 -75.61305174 199.24406384 -79.64620972 201.96789551 C-81.15508087 202.97387597 -82.6641846 203.97950768 -84.17355347 204.98474121 C-84.85234055 205.44980072 -85.53112762 205.91486023 -86.23048401 206.39401245 C-91.13741841 209.63626898 -95.31139426 211.11918734 -101.31808472 210.50036621 C-106.15447952 209.03004248 -109.23246318 206.27229363 -111.91416359 202.05709743 C-113.18559143 198.89438764 -113.10760627 196.21548722 -113.11676025 192.80751038 C-113.12129137 192.11089403 -113.12582248 191.41427768 -113.1304909 190.69655174 C-113.1431506 188.36229029 -113.14151349 186.02826171 -113.13986206 183.69396973 C-113.14584671 182.01990967 -113.15265211 180.34585237 -113.16021729 178.67179871 C-113.1779002 174.1217063 -113.18257389 169.57168912 -113.18384886 165.02156568 C-113.18527078 162.17510971 -113.18954138 159.32867283 -113.19484329 156.4822216 C-113.21335768 146.54042219 -113.22151296 136.59867643 -113.21994019 126.65686035 C-113.2187414 117.41042761 -113.2397883 108.16422929 -113.27142751 98.9178558 C-113.29765787 90.96688355 -113.30830451 83.01598748 -113.30702937 75.06497234 C-113.30652131 70.32215229 -113.31211608 65.57954011 -113.33338547 60.83676338 C-113.35287959 56.36741592 -113.35281666 51.89847203 -113.3383522 47.42910957 C-113.33627613 45.79781499 -113.3408925 44.16649442 -113.35307312 42.53524399 C-113.47980647 24.37087816 -108.77083235 9.29185235 -96.05245972 -4.05822754 C-95.32542847 -4.78783691 -94.59839722 -5.51744629 -93.84933472 -6.26916504 C-93.30792847 -6.83377441 -92.76652222 -7.39838379 -92.20870972 -7.98010254 C-63.3708836 -35.50711838 -27.4446474 -18.78233067 0 0 Z M-67.84933472 28.73083496 C-71.46075528 34.20119157 -71.25764238 39.18595094 -71.18991089 45.50964355 C-71.19034897 46.58341248 -71.19078705 47.6571814 -71.1912384 48.76348877 C-71.18915329 52.30227017 -71.1658346 55.84057411 -71.14230347 59.37927246 C-71.13670655 61.8369216 -71.1324369 64.2945741 -71.12944031 66.75222778 C-71.1179992 73.21312744 -71.088538 79.673824 -71.05532837 86.13464355 C-71.02461186 92.73048149 -71.01093157 99.32635233 -70.99581909 105.92224121 C-70.96366789 118.85852565 -70.91305878 131.79466949 -70.84933472 144.73083496 C-64.08627294 140.44546877 -57.35010201 136.12419261 -50.66183472 131.72302246 C-49.81666794 131.16744659 -48.97150116 130.61187073 -48.10072327 130.03945923 C-45.34934014 128.22964456 -42.59915544 126.41802254 -39.84933472 124.60583496 C-38.42833969 123.66973389 -38.42833969 123.66973389 -36.9786377 122.71472168 C-21.94156895 112.8036443 -6.96614304 102.80344663 7.96316528 92.73083496 C8.8847644 92.10932556 9.80636353 91.48781616 10.75588989 90.84747314 C13.37414674 89.08088392 15.99123302 87.31257893 18.60769653 85.54333496 C19.37249832 85.0268338 20.13730011 84.51033264 20.92527771 83.97817993 C25.38170587 80.95951938 29.78328379 77.8770464 34.15066528 74.73083496 C30.39925275 70.49444165 25.78824017 67.68744808 21.08425903 64.62927246 C20.18548538 64.03928467 19.28671173 63.44929688 18.36070251 62.84143066 C15.439458 60.92504328 12.51395553 59.01527359 9.58816528 57.10583496 C5.58050695 54.48258562 1.57454932 51.85674505 -2.43136597 49.23083496 C-3.4186972 48.58431976 -4.40602844 47.93780457 -5.42327881 47.271698 C-11.13745293 43.52578506 -16.82826626 39.74885405 -22.48605347 35.91833496 C-23.11238174 35.49533112 -23.73871002 35.07232727 -24.38401794 34.63650513 C-27.18846159 32.74162414 -29.98710957 30.83957302 -32.77731323 28.92370605 C-45.18863917 20.53233902 -56.30535537 17.18685561 -67.84933472 28.73083496 Z M104.48660278 78.13903809 C103.70550644 78.66861618 102.9244101 79.19819427 102.11964417 79.74382019 C101.26363113 80.32734756 100.4076181 80.91087494 99.52566528 81.51208496 C97.69899462 82.75087763 95.87225013 83.98956143 94.04544067 85.22814941 C93.08332672 85.88159332 92.12121277 86.53503723 91.12994385 87.20828247 C64.55531291 105.24908826 64.55531291 105.24908826 52.21316528 113.04333496 C42.43041748 119.23145157 32.74110016 125.55318017 23.09228516 131.94796753 C21.43029602 133.04829731 19.76667175 134.1461615 18.10137939 135.2414856 C15.77858712 136.77020532 13.46194023 138.30780846 11.14675903 139.84802246 C10.43877167 140.31180801 9.7307843 140.77559357 9.00134277 141.25343323 C7.34837051 142.36050841 5.74346437 143.53880986 4.15066528 144.73083496 C4.15066528 145.39083496 4.15066528 146.05083496 4.15066528 146.73083496 C5.65425964 148.01498764 5.65425964 148.01498764 7.66604614 149.27087402 C8.4415834 149.78106583 9.21712067 150.29125763 10.01615906 150.81690979 C10.87394455 151.37116135 11.73173004 151.9254129 12.61550903 152.49645996 C13.50362778 153.07838608 14.39174652 153.66031219 15.30677795 154.25987244 C18.22974086 156.1733202 21.15884827 158.07713192 24.08816528 159.98083496 C27.10658992 161.95182372 30.12355557 163.92502973 33.14028931 165.89860535 C35.17796079 167.23164915 37.21613193 168.56392947 39.25479126 169.89546204 C45.60270282 174.04587013 51.92049946 178.23747449 58.20925903 182.47692871 C58.97078781 182.98944183 59.73231659 183.50195496 60.516922 184.02999878 C63.38231908 185.95925711 66.24734592 187.88888529 69.10351562 189.83178711 C71.02930264 191.14140042 72.96049748 192.44265997 74.89285278 193.74255371 C75.96390259 194.46918213 77.03495239 195.19581055 78.13845825 195.94445801 C83.46775285 199.10497418 87.78727821 200.22217008 93.84597778 199.32458496 C100.55706567 197.59562672 104.52265598 193.92516952 108.06694603 188.12420654 C110.03922268 183.76847431 109.80294035 179.43297575 109.71829224 174.72497559 C109.71902237 173.65091461 109.7197525 172.57685364 109.72050476 171.47024536 C109.71703856 167.94200041 109.67822077 164.41509753 109.63894653 160.88708496 C109.62961503 158.432299 109.62250051 155.9775037 109.61750793 153.52270508 C109.59846505 147.07810523 109.5493864 140.63407347 109.49398804 134.18969727 C109.44273777 127.60713383 109.41998148 121.02447813 109.39480591 114.44177246 C109.34126605 101.53788499 109.25695337 88.63439027 109.15066528 75.73083496 C107.3348311 75.73083496 105.94396587 77.14747342 104.48660278 78.13903809 Z " fill="#FCC209" transform="translate(230.84933471679688,126.2691650390625)"/>
<path d="M0 0 C4.27208198 3.57662677 5.83141748 6.835114 6.6875 12.25 C6.77907174 14.41473144 6.81803063 16.58196166 6.82121277 18.74862671 C6.82761024 20.7205751 6.82761024 20.7205751 6.83413696 22.73236084 C6.83378746 24.18273929 6.83332594 25.63311771 6.83276367 27.08349609 C6.83575719 28.61652712 6.83916017 30.14955739 6.84294128 31.68258667 C6.8517715 35.84432608 6.85411915 40.00604492 6.85475707 44.1677928 C6.85546878 46.77355251 6.85760553 49.37930704 6.86025429 51.98506546 C6.86950848 61.09274882 6.87358958 70.20041756 6.87280273 79.30810547 C6.87220376 87.76771661 6.88271992 96.2272636 6.8985464 104.68685853 C6.91168024 111.96951449 6.91698411 119.25214965 6.91634732 126.53481734 C6.9160938 130.8752077 6.91886294 135.21554119 6.92952538 139.55591965 C6.93930369 143.64845625 6.93921986 147.74088282 6.93200874 151.83342361 C6.93097447 153.32358208 6.93325564 154.81374775 6.9393692 156.30389404 C6.99455367 170.7050075 6.30169066 184.18743405 -0.3125 197.25 C-0.74433594 198.11238281 -1.17617188 198.97476563 -1.62109375 199.86328125 C-9.79584992 214.75384278 -22.99023172 223.24646275 -38.734375 228.3046875 C-54.73398468 232.53165862 -70.70696981 229.74607991 -85.3125 222.25 C-92.64280143 217.92999126 -99.58230572 212.98121215 -106.5625 208.125 C-110.23055029 205.59597926 -113.90392175 203.07475819 -117.578125 200.5546875 C-118.48007599 199.93426071 -119.38202698 199.31383392 -120.31130981 198.67460632 C-126.93848707 194.13487156 -133.67299193 189.79872319 -140.48452759 185.542099 C-147.72877284 181.01152022 -154.85627566 176.32109257 -161.93554688 171.53735352 C-163.99616271 170.1479456 -166.06446053 168.77043579 -168.1328125 167.39257812 C-169.4562075 166.50070936 -170.77914395 165.6081597 -172.1015625 164.71484375 C-172.71488434 164.30862289 -173.32820618 163.90240204 -173.96011353 163.48387146 C-178.19818493 160.59294521 -178.19818493 160.59294521 -179.3125 157.25 C-174.29287023 153.77186126 -169.25762424 150.318176 -164.20629883 146.88623047 C-162.48986136 145.71509835 -160.77789837 144.53738043 -159.07055664 143.35302734 C-156.61707619 141.65276468 -154.14853562 139.97675199 -151.67578125 138.3046875 C-150.91413162 137.76939423 -150.15248199 137.23410095 -149.36775208 136.68258667 C-148.64738266 136.20193756 -147.92701324 135.72128845 -147.18481445 135.22607422 C-146.24216484 134.57987625 -146.24216484 134.57987625 -145.2804718 133.92062378 C-143.3125 133.25 -143.3125 133.25 -140.8286438 133.96575928 C-138.5102353 135.14907583 -136.3509306 136.3851902 -134.18188477 137.82177734 C-133.39716293 138.33834396 -132.6124411 138.85491058 -131.80393982 139.38713074 C-130.96242874 139.94773697 -130.12091766 140.5083432 -129.25390625 141.0859375 C-127.92003624 141.96702934 -127.92003624 141.96702934 -126.55921936 142.86592102 C-124.65141199 144.12716314 -122.74501784 145.39054505 -120.83990479 146.65585327 C-117.86338813 148.63271205 -114.88306142 150.6037078 -111.90185547 152.57348633 C-102.89192326 158.53168061 -93.89933745 164.5146727 -84.94140625 170.55078125 C-83.55852368 171.48064833 -82.17563022 172.41049921 -80.79272461 173.34033203 C-78.28122042 175.02954279 -75.77653466 176.72824517 -73.27563477 178.43310547 C-72.15530295 179.18876171 -71.0347906 179.94415038 -69.9140625 180.69921875 C-68.96869629 181.34205811 -68.02333008 181.98489746 -67.04931641 182.6472168 C-61.02532727 186.17509268 -55.99644034 186.98036019 -49.3125 185.25 C-43.3516195 182.71636296 -39.8132165 179.30467648 -37.3125 173.25 C-36.62121807 169.69127974 -36.46207495 166.15688198 -36.31884766 162.5390625 C-36.2636496 161.48258514 -36.20845154 160.42610779 -36.15158081 159.33761597 C-35.67545918 149.58472498 -35.41928686 139.81993942 -35.22236061 130.05780029 C-35.09012321 123.5138031 -34.89245584 116.98767627 -34.52783203 110.45214844 C-31.59585212 82.11260668 -31.59585212 82.11260668 -40.77233887 56.58300781 C-48.55815387 48.90222727 -58.21209076 43.94629807 -68.22909546 39.79736328 C-69.24661896 39.2867334 -70.26414246 38.77610352 -71.3125 38.25 C-71.3125 37.26 -71.3125 36.27 -71.3125 35.25 C-69.76753235 33.84211731 -69.76753235 33.84211731 -67.5715332 32.37426758 C-66.75260086 31.8197139 -65.93366852 31.26516022 -65.08992004 30.69380188 C-64.19012924 30.10004257 -63.29033844 29.50628326 -62.36328125 28.89453125 C-61.43968307 28.27406418 -60.5160849 27.65359711 -59.5644989 27.014328 C-56.59102059 25.02069639 -53.60802551 23.04180989 -50.625 21.0625 C-48.66281532 19.74763398 -46.70121947 18.43188878 -44.74023438 17.11523438 C-10.72652191 -5.66684176 -10.72652191 -5.66684176 0 0 Z " fill="#5E17EA" transform="translate(376.3125,138.75)"/>
<path d="M0 0 C0.8360376 0.50845459 1.6720752 1.01690918 2.53344727 1.54077148 C3.06936493 1.86487503 3.60528259 2.18897858 4.15744019 2.52290344 C6.06699576 3.70660123 7.93580388 4.93977498 9.80297852 6.18920898 C10.48398117 6.64300934 11.16498383 7.09680969 11.86662292 7.56436157 C13.29794972 8.5216205 14.72746994 9.48158559 16.15527344 10.4440918 C18.34755546 11.91685186 20.55239081 13.3694081 22.75805664 14.82202148 C24.1488484 15.75570029 25.53885105 16.69055584 26.92797852 17.62670898 C27.92158134 18.27535416 27.92158134 18.27535416 28.93525696 18.93710327 C30.76708984 20.19067383 30.76708984 20.19067383 33.53344727 22.54077148 C33.53344727 26.54077148 33.53344727 26.54077148 32.06922913 28.01507568 C31.03650124 28.70213593 31.03650124 28.70213593 29.98291016 29.40307617 C29.20173828 29.93235214 28.42056641 30.46162811 27.61572266 31.00694275 C26.75454834 31.56982498 25.89337402 32.13270721 25.00610352 32.71264648 C24.11971191 33.30715103 23.23332031 33.90165558 22.32006836 34.51417542 C19.42086859 36.45335447 16.50883456 38.3722272 13.59594727 40.29077148 C11.59392142 41.62338439 9.59253909 42.95696457 7.59179688 44.29150391 C-3.28127264 51.52818434 -14.21094207 58.67231319 -25.25024414 65.65307617 C-34.18438215 71.31351109 -42.98520116 77.16588206 -51.77905273 83.04077148 C-52.53038483 83.54242828 -53.28171692 84.04408508 -54.05581665 84.5609436 C-62.09103 89.92704119 -70.1179935 95.30535617 -78.13877869 100.69299316 C-81.48233924 102.93776694 -84.82819928 105.17909804 -88.17440796 107.41992188 C-90.55842242 109.0185555 -92.93888936 110.62237876 -95.31933594 112.22631836 C-96.76666065 113.19599566 -98.21416076 114.16541124 -99.66186523 115.13452148 C-100.32466995 115.58327637 -100.98747467 116.03203125 -101.67036438 116.49438477 C-106.23884323 119.54077148 -106.23884323 119.54077148 -108.46655273 119.54077148 C-108.79655273 120.20077148 -109.12655273 120.86077148 -109.46655273 121.54077148 C-109.46655273 120.88077148 -109.46655273 120.22077148 -109.46655273 119.54077148 C-110.14161865 119.3095459 -110.81668457 119.07832031 -111.51220703 118.84008789 C-115.2341496 117.20318364 -118.395112 115.0516174 -121.73608398 112.75170898 C-122.41708664 112.28842194 -123.09808929 111.82513489 -123.79972839 111.34780884 C-125.962582 109.87491914 -128.12084844 108.39546309 -130.27905273 106.91577148 C-131.74945748 105.91272978 -133.2201575 104.91012076 -134.69116211 103.90795898 C-138.28639767 101.45722757 -141.87753538 99.00059928 -145.46655273 96.54077148 C-144.10567811 93.32454553 -142.80462276 91.77466175 -139.8828125 89.88476562 C-139.13925507 89.39699646 -138.39569763 88.90922729 -137.62960815 88.40667725 C-136.81396393 87.88502991 -135.9983197 87.36338257 -135.15795898 86.82592773 C-134.30042023 86.26633362 -133.44288147 85.7067395 -132.55935669 85.13018799 C-130.69731871 83.91625027 -128.83255597 82.70648416 -126.96542358 81.50039673 C-121.96119469 78.26727344 -116.9769451 75.00357433 -111.98999023 71.74389648 C-110.95909775 71.07123245 -109.92820526 70.39856842 -108.86607361 69.70552063 C-97.88731374 62.53203148 -87.01426488 55.2045391 -76.15405273 47.85327148 C-74.38461297 46.65607231 -72.61516335 45.45888769 -70.84570312 44.26171875 C-70.00114059 43.69021591 -69.15657806 43.11871307 -68.28642273 42.52989197 C-65.08983693 40.36736175 -61.8922563 38.20630796 -58.69403076 36.04620361 C-57.23177865 35.05794636 -55.77020777 34.06868022 -54.30938721 33.07830811 C-41.97185976 24.71890196 -41.97185976 24.71890196 -36.98217773 22.06811523 C-32.84759322 19.86616805 -29.04883899 17.26711627 -25.20092773 14.60717773 C-24.55385864 14.16240082 -23.90678955 13.7176239 -23.2401123 13.2593689 C-20.54167126 11.40318439 -17.84485257 9.54561073 -15.16674805 7.66015625 C-13.18925173 6.27140374 -11.19704382 4.90647872 -9.20092773 3.54467773 C-8.59875427 3.11256485 -7.99658081 2.68045197 -7.37615967 2.23524475 C-3.17628268 -0.59136769 -3.17628268 -0.59136769 0 0 Z " fill="#E51A5A" transform="translate(305.466552734375,176.459228515625)"/>
</svg>
